PathFileType  4	(X/Y/Z) C:\Users\antoi\Documents\MyRepositories\mobilecap\ResultsAnalysis
DataRate	CameraRate	NumFrames	NumMarkers	Units	OrigDataRate	OrigDataStartFrame	OrigNumFrames
100.0	100.0	4	51	mm	100.0	687	1831
Frame#	Time	r_knee			r_shank_antsup			r_ankle			r_calc			r_5meta			r_toe			L_knee			L_shank_antsup			L_ankle			L_calc			L_5meta			L_toe			r_sh2			r_sh3			r_sh4			L_sh2			L_sh3			r_thigh1			r_thigh2			r_thigh3			r_thigh4			r_thigh5			L_thigh1			L_thigh2			L_thigh3			L_thigh4			r.ASIS			r.PSIS			L.ASIS			L.PSIS			C7			R_Shoulder			L_Shoulder			R_Sternum			L_Sternum			R_humerus			R_elbow_med			R_elbow_lat			R_forearm			R_wrist_radius			R_wrist_ulna			L_humerus			L_elbow_med			L_elbow_lat			L_forearm			L_wrist_radius			L_wrist_ulna			R_HJC			L_HJC			R_HJC_reg			L_HJC_reg			
		X1	Y1	Z1	X2	Y2	Z2	X3	Y3	Z3	X4	Y4	Z4	X5	Y5	Z5	X6	Y6	Z6	X7	Y7	Z7	X8	Y8	Z8	X9	Y9	Z9	X10	Y10	Z10	X11	Y11	Z11	X12	Y12	Z12	X13	Y13	Z13	X14	Y14	Z14	X15	Y15	Z15	X16	Y16	Z16	X17	Y17	Z17	X18	Y18	Z18	X19	Y19	Z19	X20	Y20	Z20	X21	Y21	Z21	X22	Y22	Z22	X23	Y23	Z23	X24	Y24	Z24	X25	Y25	Z25	X26	Y26	Z26	X27	Y27	Z27	X28	Y28	Z28	X29	Y29	Z29	X30	Y30	Z30	X31	Y31	Z31	X32	Y32	Z32	X33	Y33	Z33	X34	Y34	Z34	X35	Y35	Z35	X36	Y36	Z36	X37	Y37	Z37	X38	Y38	Z38	X39	Y39	Z39	X40	Y40	Z40	X41	Y41	Z41	X42	Y42	Z42	X43	Y43	Z43	X44	Y44	Z44	X45	Y45	Z45	X46	Y46	Z46	X47	Y47	Z47	X48	Y48	Z48	X49	Y49	Z49	X50	Y50	Z50	X51	Y51	Z51	

687	6.86000000	-281.68225	523.05691	-397.20602	-208.74115	443.98968	-403.56713	-287.83930	120.66633	-425.57544	-368.65576	72.02340	-472.73626	-175.12344	49.94804	-379.07678	-116.81439	84.19891	-438.19052	-294.70675	525.80811	-855.80002	-264.88070	452.01690	-877.52345	-291.95886	124.17403	-825.21414	-368.37325	72.64945	-765.90784	-181.19131	51.53105	-864.14305	-119.79754	83.18822	-805.48158	-226.01917	333.10865	-382.99534	-272.73048	460.48213	-365.19118	-304.48520	349.43673	-361.60454	-354.74283	452.30342	-864.14338	-341.52043	331.04945	-860.27574	-590.73920	587.92996	-428.79255	-485.66089	599.52812	-425.64042	-457.85099	552.63468	-382.06818	-579.43757	477.32229	-411.44585	-466.11617	497.72116	-394.43754	-568.88630	595.90290	-812.52821	-429.41741	613.81912	-822.80497	-561.40281	496.31337	-855.81768	-425.30631	507.57269	-867.87608	-620.16226	619.15756	-496.10643	-804.46588	604.07082	-562.35385	-631.92760	606.51568	-745.47902	-813.60933	600.23200	-668.20848	-455.05418	1069.36899	-628.90224	-413.35282	989.71799	-470.73031	-433.45813	998.74851	-797.61055	-382.72386	932.97021	-603.59902	-389.98876	930.63176	-661.17869	-434.25377	866.67708	-372.01638	-520.22196	670.25002	-340.27095	-504.29940	722.09304	-266.08126	-337.78403	695.51241	-278.96021	-250.52921	706.03941	-312.67813	-259.09219	670.85868	-283.44042	-482.64833	903.67852	-890.00123	-538.18944	659.20927	-881.73916	-524.52355	697.98763	-962.30173	-447.26048	697.76458	-967.52644	-278.30195	694.15853	-934.30706	-280.73383	655.27350	-947.09853	-685.03450	492.09153	-509.39207	-698.54497	487.90777	-715.86893	-665.81341	526.78005	-524.05380	-680.00188	520.82270	-688.31501	
688	6.87000000	-280.94378	522.61462	-397.40094	-208.09668	443.70388	-403.16857	-288.06755	120.45857	-425.50199	-368.66128	71.98094	-472.76798	-175.26136	50.16852	-378.77068	-117.01456	84.76373	-437.86113	-293.89276	525.61628	-857.07055	-263.89020	451.69230	-878.32754	-291.98557	123.97677	-825.17316	-368.39792	72.62180	-765.96614	-181.23433	51.60070	-864.22063	-119.86778	83.37518	-805.55599	-225.69186	332.96277	-382.64444	-271.88382	459.77557	-364.94897	-304.05538	349.32131	-361.40555	-353.80108	452.32046	-864.96952	-340.94473	330.98564	-860.66089	-589.56658	588.48643	-429.07407	-484.75435	599.71509	-425.09364	-457.16511	553.12333	-382.00292	-578.54931	477.45404	-411.52223	-465.43384	498.21620	-393.96489	-567.90595	596.72073	-811.91352	-428.52025	614.14378	-823.22276	-560.68606	497.01803	-855.75576	-424.65585	507.90257	-868.09235	-615.92736	617.79140	-495.92913	-800.62341	606.33178	-562.67134	-627.83778	604.96315	-745.91198	-809.73336	602.60791	-668.35971	-440.55738	1063.32131	-629.31399	-400.24879	983.09234	-471.50553	-418.87578	992.36403	-797.87320	-370.40664	925.97008	-603.93408	-378.02705	923.20679	-661.17419	-421.27149	861.46330	-372.09236	-508.10164	666.07424	-337.27342	-490.99980	718.61567	-263.89988	-324.95326	690.06513	-277.34982	-237.71540	699.00901	-311.85828	-246.38238	664.18046	-282.34580	-468.22125	898.25850	-890.42196	-524.88334	654.42562	-883.86739	-510.38446	693.02512	-963.67787	-433.02033	692.44379	-968.73151	-264.39082	687.36506	-933.81441	-266.98120	648.52699	-947.00364	-683.48141	492.03788	-509.38226	-696.94560	487.82433	-715.86176	-663.46133	526.01840	-523.94457	-677.65583	520.21651	-688.62460	
689	6.88000000	-280.29472	522.21969	-397.33999	-207.43005	443.33013	-402.66075	-288.36220	120.37664	-425.38961	-368.67428	71.91314	-472.77026	-175.43034	50.43075	-378.48434	-117.19483	85.39583	-437.56608	-293.07643	525.49043	-858.21501	-262.87092	451.31875	-879.04678	-292.01170	123.76956	-825.16370	-368.43219	72.53457	-765.90328	-181.28363	51.63120	-864.22853	-119.92275	83.60139	-805.69806	-225.28448	332.78494	-382.24780	-271.14179	459.28907	-364.71897	-303.65148	349.30804	-361.01846	-352.80438	452.44741	-866.06704	-340.36013	330.85801	-861.11306	-588.00323	588.92378	-429.72618	-483.67302	600.05091	-424.52613	-456.39544	553.41825	-381.75369	-577.59469	477.35402	-411.95540	-464.67813	498.47841	-393.39544	-567.40166	597.60310	-811.96268	-427.48834	614.63624	-823.57982	-559.93999	497.80197	-855.88780	-424.00136	508.48913	-868.47408	-611.66498	616.32643	-495.79355	-796.53853	608.61394	-562.87539	-623.76503	603.39005	-746.36680	-805.51008	605.13457	-668.48307	-425.92443	1056.92667	-629.73899	-387.09861	976.34317	-472.47260	-405.30017	985.12247	-797.26526	-357.58872	919.01817	-604.17054	-365.99768	915.55674	-661.32306	-408.21216	855.97977	-372.24736	-495.81024	661.85400	-334.64471	-477.76029	714.97187	-261.69507	-312.08246	684.54488	-275.65420	-224.96696	691.65873	-311.17011	-233.80677	657.25962	-281.20851	-453.67254	892.70217	-890.95382	-511.71347	649.32786	-886.05981	-496.13964	687.98803	-965.32057	-418.84346	686.79957	-969.75846	-250.49803	680.17044	-933.36308	-253.27606	641.56497	-946.99830	-681.83781	491.98648	-509.40609	-695.31490	487.83702	-715.88588	-661.14037	525.12869	-524.03080	-675.16648	519.68932	-689.13770	
690	6.89000000	-279.55469	521.91912	-396.78743	-206.71969	442.99276	-402.12198	-288.62161	120.43294	-425.27634	-368.70192	71.84202	-472.76372	-175.56483	50.63620	-378.34667	-117.30615	85.91967	-437.34463	-292.16656	525.21846	-858.98406	-261.78563	450.84988	-879.67482	-292.01693	123.60425	-825.26825	-368.44841	72.38226	-765.68772	-181.32401	51.64869	-864.23194	-119.95906	83.79491	-805.86823	-224.70067	332.46344	-381.93130	-270.62061	459.39268	-364.27333	-303.17009	349.31796	-360.45300	-351.67540	452.45417	-867.09785	-339.70877	330.73840	-861.79404	-586.69713	589.32600	-429.53877	-482.71370	600.45436	-423.97425	-455.51821	553.61202	-381.16726	-576.71722	477.56053	-412.07246	-463.84777	498.57241	-392.98242	-566.67896	598.31407	-811.78422	-426.36485	615.31781	-823.73646	-559.14069	498.65049	-856.12543	-423.25305	509.28062	-869.03295	-607.24890	614.60174	-496.23391	-792.23479	610.99598	-563.08001	-619.77765	601.99625	-746.90972	-801.16453	607.74801	-668.58432	-411.19851	1050.29816	-630.22025	-373.82910	969.55522	-473.46101	-391.86637	977.57554	-796.45087	-344.78544	911.76973	-604.39960	-353.87027	907.66908	-661.56573	-395.06752	850.46263	-372.42933	-483.49192	657.60003	-332.50235	-464.47198	711.05547	-259.94747	-299.23659	678.59060	-274.34630	-212.23207	684.05834	-310.59009	-221.31788	649.95417	-280.42051	-439.06147	887.01421	-891.36705	-498.58087	643.99310	-888.28985	-481.84537	683.14175	-967.85508	-404.65306	680.99925	-970.82858	-236.67125	672.70672	-933.05384	-239.65066	634.25467	-946.82589	-680.03724	491.84692	-509.78426	-693.81838	488.05197	-716.25009	-658.85001	524.49267	-524.55756	-672.83206	519.40652	-689.75099	
